<mxfile host="app.diagrams.net" modified="2024-04-21T14:03:09.322Z" agent="Mozilla/5.0 (Macintosh; Intel Mac OS X 10_15_7) AppleWebKit/537.36 (KHTML, like Gecko) Chrome/124.0.0.0 Safari/537.36" etag="JE4rERUvzdjJViOuXE4P" version="24.2.5" type="github">
  <diagram name="Page-1" id="0783ab3e-0a74-02c8-0abd-f7b4e66b4bec">
    <mxGraphModel dx="1440" dy="784" grid="1" gridSize="10" guides="1" tooltips="1" connect="1" arrows="1" fold="1" page="1" pageScale="1" pageWidth="850" pageHeight="1100" background="none" math="0" shadow="0">
      <root>
        <mxCell id="0" />
        <mxCell id="1" parent="0" />
        <mxCell id="1c1d494c118603dd-1" value="Anforderungsentwicklung" style="swimlane;html=1;childLayout=stackLayout;startSize=20;rounded=0;shadow=0;comic=0;labelBackgroundColor=none;strokeWidth=1;fontFamily=Verdana;fontSize=12;align=center;" parent="1" vertex="1">
          <mxGeometry x="40" y="20" width="1963.5" height="2190" as="geometry" />
        </mxCell>
        <mxCell id="1c1d494c118603dd-2" value="Requirements Engineer" style="swimlane;html=1;startSize=20;" parent="1c1d494c118603dd-1" vertex="1">
          <mxGeometry y="20" width="280" height="2170" as="geometry" />
        </mxCell>
        <mxCell id="60571a20871a0731-4" value="" style="ellipse;whiteSpace=wrap;html=1;rounded=0;shadow=0;comic=0;labelBackgroundColor=none;strokeWidth=1;fillColor=#000000;fontFamily=Verdana;fontSize=12;align=center;" parent="1c1d494c118603dd-2" vertex="1">
          <mxGeometry x="90" y="30" width="40" height="40" as="geometry" />
        </mxCell>
        <mxCell id="pIcPM3kmBpWuhy6s9xmB-65" style="edgeStyle=orthogonalEdgeStyle;rounded=0;orthogonalLoop=1;jettySize=auto;html=1;exitX=0.5;exitY=1;exitDx=0;exitDy=0;" edge="1" parent="1c1d494c118603dd-2" source="60571a20871a0731-8" target="pIcPM3kmBpWuhy6s9xmB-63">
          <mxGeometry relative="1" as="geometry" />
        </mxCell>
        <mxCell id="60571a20871a0731-8" value="Fachkonzept erstellen" style="rounded=1;whiteSpace=wrap;html=1;shadow=0;comic=0;labelBackgroundColor=none;strokeWidth=1;fontFamily=Verdana;fontSize=12;align=center;arcSize=50;" parent="1c1d494c118603dd-2" vertex="1">
          <mxGeometry x="50" y="100" width="120" height="30" as="geometry" />
        </mxCell>
        <mxCell id="1c1d494c118603dd-27" style="edgeStyle=orthogonalEdgeStyle;rounded=0;html=1;labelBackgroundColor=none;startArrow=none;startFill=0;startSize=5;endArrow=classicThin;endFill=1;endSize=5;jettySize=auto;orthogonalLoop=1;strokeWidth=1;fontFamily=Verdana;fontSize=12" parent="1c1d494c118603dd-2" source="60571a20871a0731-4" target="60571a20871a0731-8" edge="1">
          <mxGeometry relative="1" as="geometry" />
        </mxCell>
        <mxCell id="pIcPM3kmBpWuhy6s9xmB-63" value="Fachkonzept" style="rounded=0;whiteSpace=wrap;html=1;shadow=0;comic=0;labelBackgroundColor=none;strokeWidth=1;fontFamily=Verdana;fontSize=12;align=center;arcSize=50;" vertex="1" parent="1c1d494c118603dd-2">
          <mxGeometry x="57.5" y="180" width="122.5" height="30" as="geometry" />
        </mxCell>
        <mxCell id="pIcPM3kmBpWuhy6s9xmB-117" value="überarbeitet&amp;nbsp;" style="rounded=1;whiteSpace=wrap;html=1;shadow=0;comic=0;labelBackgroundColor=none;strokeWidth=1;fontFamily=Verdana;fontSize=12;align=center;arcSize=50;" vertex="1" parent="1c1d494c118603dd-2">
          <mxGeometry x="72.5" y="690" width="135" height="30" as="geometry" />
        </mxCell>
        <mxCell id="pIcPM3kmBpWuhy6s9xmB-125" value="" style="rhombus;whiteSpace=wrap;html=1;" vertex="1" parent="1c1d494c118603dd-2">
          <mxGeometry x="180" y="500" width="35" height="40" as="geometry" />
        </mxCell>
        <mxCell id="pIcPM3kmBpWuhy6s9xmB-107" style="edgeStyle=orthogonalEdgeStyle;rounded=0;orthogonalLoop=1;jettySize=auto;html=1;entryX=0;entryY=0.5;entryDx=0;entryDy=0;exitX=0;exitY=0.5;exitDx=0;exitDy=0;" edge="1" parent="1c1d494c118603dd-2" source="pIcPM3kmBpWuhy6s9xmB-125" target="60571a20871a0731-8">
          <mxGeometry relative="1" as="geometry">
            <mxPoint x="290" y="450" as="sourcePoint" />
          </mxGeometry>
        </mxCell>
        <mxCell id="pIcPM3kmBpWuhy6s9xmB-133" value="[keine Zeit]" style="text;html=1;align=center;verticalAlign=middle;whiteSpace=wrap;rounded=0;" vertex="1" parent="1c1d494c118603dd-2">
          <mxGeometry x="190" y="560" width="60" height="30" as="geometry" />
        </mxCell>
        <mxCell id="pIcPM3kmBpWuhy6s9xmB-146" style="edgeStyle=orthogonalEdgeStyle;rounded=0;orthogonalLoop=1;jettySize=auto;html=1;exitX=0.5;exitY=0;exitDx=0;exitDy=0;exitPerimeter=0;entryX=0.5;entryY=0;entryDx=0;entryDy=0;" edge="1" parent="1c1d494c118603dd-2" source="pIcPM3kmBpWuhy6s9xmB-147" target="pIcPM3kmBpWuhy6s9xmB-148">
          <mxGeometry relative="1" as="geometry" />
        </mxCell>
        <mxCell id="pIcPM3kmBpWuhy6s9xmB-147" value="Letter of Acceptance erhalten" style="shape=mxgraph.sysml.accEvent;flipH=1;whiteSpace=wrap;align=center;html=1;direction=west;" vertex="1" parent="1c1d494c118603dd-2">
          <mxGeometry x="57.5" y="1010" width="140" height="40" as="geometry" />
        </mxCell>
        <mxCell id="pIcPM3kmBpWuhy6s9xmB-148" value="unterschreiben" style="rounded=1;whiteSpace=wrap;html=1;shadow=0;comic=0;labelBackgroundColor=none;strokeWidth=1;fontFamily=Verdana;fontSize=12;align=center;arcSize=50;" vertex="1" parent="1c1d494c118603dd-2">
          <mxGeometry x="60" y="1110" width="135" height="30" as="geometry" />
        </mxCell>
        <mxCell id="1c1d494c118603dd-3" value="Project Management Office" style="swimlane;html=1;startSize=20;" parent="1c1d494c118603dd-1" vertex="1">
          <mxGeometry x="280" y="20" width="440" height="2170" as="geometry" />
        </mxCell>
        <mxCell id="pIcPM3kmBpWuhy6s9xmB-70" style="edgeStyle=orthogonalEdgeStyle;rounded=0;orthogonalLoop=1;jettySize=auto;html=1;exitX=0.5;exitY=1;exitDx=0;exitDy=0;" edge="1" parent="1c1d494c118603dd-3" source="pIcPM3kmBpWuhy6s9xmB-66">
          <mxGeometry relative="1" as="geometry">
            <mxPoint x="135" y="170" as="targetPoint" />
          </mxGeometry>
        </mxCell>
        <mxCell id="pIcPM3kmBpWuhy6s9xmB-66" value="überarbeitet" style="rounded=1;whiteSpace=wrap;html=1;shadow=0;comic=0;labelBackgroundColor=none;strokeWidth=1;fontFamily=Verdana;fontSize=12;align=center;arcSize=50;" vertex="1" parent="1c1d494c118603dd-3">
          <mxGeometry x="85" y="90" width="100" height="30" as="geometry" />
        </mxCell>
        <mxCell id="pIcPM3kmBpWuhy6s9xmB-73" value="benachrichtige Reviewer" style="html=1;shape=mxgraph.infographic.ribbonSimple;notch1=0;notch2=20;align=center;verticalAlign=middle;fontSize=14;fontStyle=0;fillColor=#FFFFFF;whiteSpace=wrap;" vertex="1" parent="1c1d494c118603dd-3">
          <mxGeometry x="55" y="170" width="175" height="40" as="geometry" />
        </mxCell>
        <mxCell id="pIcPM3kmBpWuhy6s9xmB-100" style="edgeStyle=orthogonalEdgeStyle;rounded=0;orthogonalLoop=1;jettySize=auto;html=1;exitX=0.5;exitY=1;exitDx=0;exitDy=0;entryX=0.5;entryY=0;entryDx=0;entryDy=0;" edge="1" parent="1c1d494c118603dd-3" source="pIcPM3kmBpWuhy6s9xmB-94" target="pIcPM3kmBpWuhy6s9xmB-102">
          <mxGeometry relative="1" as="geometry">
            <mxPoint x="135" y="450" as="targetPoint" />
          </mxGeometry>
        </mxCell>
        <mxCell id="pIcPM3kmBpWuhy6s9xmB-94" value="erstellt Gesamtbewertung" style="rounded=1;whiteSpace=wrap;html=1;shadow=0;comic=0;labelBackgroundColor=none;strokeWidth=1;fontFamily=Verdana;fontSize=12;align=center;arcSize=50;" vertex="1" parent="1c1d494c118603dd-3">
          <mxGeometry x="140" y="340" width="135" height="30" as="geometry" />
        </mxCell>
        <mxCell id="pIcPM3kmBpWuhy6s9xmB-120" style="edgeStyle=orthogonalEdgeStyle;rounded=0;orthogonalLoop=1;jettySize=auto;html=1;exitX=1;exitY=0.5;exitDx=0;exitDy=0;entryX=0.75;entryY=0;entryDx=0;entryDy=0;" edge="1" parent="1c1d494c118603dd-3" source="pIcPM3kmBpWuhy6s9xmB-102" target="pIcPM3kmBpWuhy6s9xmB-119">
          <mxGeometry relative="1" as="geometry">
            <mxPoint x="250" y="450" as="sourcePoint" />
            <mxPoint x="272.5" y="760" as="targetPoint" />
          </mxGeometry>
        </mxCell>
        <mxCell id="pIcPM3kmBpWuhy6s9xmB-102" value="" style="rhombus;whiteSpace=wrap;html=1;" vertex="1" parent="1c1d494c118603dd-3">
          <mxGeometry x="190" y="430" width="35" height="40" as="geometry" />
        </mxCell>
        <mxCell id="pIcPM3kmBpWuhy6s9xmB-105" value="[kritischer Fehler]" style="text;html=1;align=center;verticalAlign=middle;whiteSpace=wrap;rounded=0;" vertex="1" parent="1c1d494c118603dd-3">
          <mxGeometry x="130" y="410" width="60" height="30" as="geometry" />
        </mxCell>
        <mxCell id="pIcPM3kmBpWuhy6s9xmB-106" value="[weniger&lt;div&gt;kritischer Fehler]&lt;/div&gt;" style="text;html=1;align=center;verticalAlign=middle;whiteSpace=wrap;rounded=0;" vertex="1" parent="1c1d494c118603dd-3">
          <mxGeometry x="140" y="495" width="60" height="30" as="geometry" />
        </mxCell>
        <mxCell id="pIcPM3kmBpWuhy6s9xmB-119" value="Abnahme vorbereiten" style="rounded=1;whiteSpace=wrap;html=1;shadow=0;comic=0;labelBackgroundColor=none;strokeWidth=1;fontFamily=Verdana;fontSize=12;align=center;arcSize=50;" vertex="1" parent="1c1d494c118603dd-3">
          <mxGeometry x="185" y="820" width="135" height="30" as="geometry" />
        </mxCell>
        <mxCell id="pIcPM3kmBpWuhy6s9xmB-121" value="[kein Fehler]" style="text;html=1;align=center;verticalAlign=middle;whiteSpace=wrap;rounded=0;" vertex="1" parent="1c1d494c118603dd-3">
          <mxGeometry x="240" y="410" width="60" height="30" as="geometry" />
        </mxCell>
        <mxCell id="pIcPM3kmBpWuhy6s9xmB-134" value="Send Letter of Acceptance" style="html=1;shape=mxgraph.infographic.ribbonSimple;notch1=0;notch2=20;align=center;verticalAlign=middle;fontSize=14;fontStyle=0;fillColor=#FFFFFF;whiteSpace=wrap;" vertex="1" parent="1c1d494c118603dd-3">
          <mxGeometry x="182" y="900" width="160" height="40" as="geometry" />
        </mxCell>
        <mxCell id="pIcPM3kmBpWuhy6s9xmB-135" style="edgeStyle=orthogonalEdgeStyle;rounded=0;orthogonalLoop=1;jettySize=auto;html=1;exitX=0.5;exitY=1;exitDx=0;exitDy=0;entryX=0;entryY=0;entryDx=70;entryDy=0;entryPerimeter=0;" edge="1" parent="1c1d494c118603dd-3" source="pIcPM3kmBpWuhy6s9xmB-119" target="pIcPM3kmBpWuhy6s9xmB-134">
          <mxGeometry relative="1" as="geometry" />
        </mxCell>
        <mxCell id="pIcPM3kmBpWuhy6s9xmB-154" style="edgeStyle=orthogonalEdgeStyle;rounded=0;orthogonalLoop=1;jettySize=auto;html=1;exitX=0.5;exitY=1;exitDx=0;exitDy=0;entryX=0.5;entryY=0;entryDx=0;entryDy=0;" edge="1" parent="1c1d494c118603dd-3" source="pIcPM3kmBpWuhy6s9xmB-149" target="pIcPM3kmBpWuhy6s9xmB-153">
          <mxGeometry relative="1" as="geometry" />
        </mxCell>
        <mxCell id="pIcPM3kmBpWuhy6s9xmB-149" value="" style="whiteSpace=wrap;html=1;rounded=0;shadow=0;comic=0;labelBackgroundColor=none;strokeWidth=1;fillColor=#000000;fontFamily=Verdana;fontSize=12;align=center;rotation=0;" vertex="1" parent="1c1d494c118603dd-3">
          <mxGeometry x="8.25" y="1340" width="423.5" height="10" as="geometry" />
        </mxCell>
        <mxCell id="pIcPM3kmBpWuhy6s9xmB-153" value="übergebe Fachkonzept" style="rounded=1;whiteSpace=wrap;html=1;shadow=0;comic=0;labelBackgroundColor=none;strokeWidth=1;fontFamily=Verdana;fontSize=12;align=center;arcSize=50;" vertex="1" parent="1c1d494c118603dd-3">
          <mxGeometry x="152.5" y="1440" width="135" height="30" as="geometry" />
        </mxCell>
        <mxCell id="pIcPM3kmBpWuhy6s9xmB-67" style="edgeStyle=orthogonalEdgeStyle;rounded=0;orthogonalLoop=1;jettySize=auto;html=1;exitX=1;exitY=0.5;exitDx=0;exitDy=0;entryX=0.5;entryY=0;entryDx=0;entryDy=0;" edge="1" parent="1c1d494c118603dd-1" source="pIcPM3kmBpWuhy6s9xmB-63" target="pIcPM3kmBpWuhy6s9xmB-66">
          <mxGeometry relative="1" as="geometry" />
        </mxCell>
        <mxCell id="pIcPM3kmBpWuhy6s9xmB-99" style="edgeStyle=orthogonalEdgeStyle;rounded=0;orthogonalLoop=1;jettySize=auto;html=1;exitX=0.5;exitY=1;exitDx=0;exitDy=0;entryX=0.5;entryY=0;entryDx=0;entryDy=0;" edge="1" parent="1c1d494c118603dd-1" source="pIcPM3kmBpWuhy6s9xmB-87" target="pIcPM3kmBpWuhy6s9xmB-94">
          <mxGeometry relative="1" as="geometry" />
        </mxCell>
        <mxCell id="pIcPM3kmBpWuhy6s9xmB-33" value="externer Gutachter" style="swimlane;html=1;startSize=20;" vertex="1" parent="1c1d494c118603dd-1">
          <mxGeometry x="720" y="20" width="293.5" height="2170" as="geometry" />
        </mxCell>
        <mxCell id="pIcPM3kmBpWuhy6s9xmB-81" style="edgeStyle=orthogonalEdgeStyle;rounded=0;orthogonalLoop=1;jettySize=auto;html=1;exitX=0.5;exitY=0;exitDx=0;exitDy=0;exitPerimeter=0;entryX=0.5;entryY=0;entryDx=0;entryDy=0;" edge="1" parent="pIcPM3kmBpWuhy6s9xmB-33" source="pIcPM3kmBpWuhy6s9xmB-82" target="pIcPM3kmBpWuhy6s9xmB-83">
          <mxGeometry relative="1" as="geometry" />
        </mxCell>
        <mxCell id="pIcPM3kmBpWuhy6s9xmB-82" value="Nachricht von PMO" style="shape=mxgraph.sysml.accEvent;flipH=1;whiteSpace=wrap;align=center;html=1;direction=west;" vertex="1" parent="pIcPM3kmBpWuhy6s9xmB-33">
          <mxGeometry x="60" y="50" width="140" height="40" as="geometry" />
        </mxCell>
        <mxCell id="pIcPM3kmBpWuhy6s9xmB-83" value="bewerten" style="rounded=1;whiteSpace=wrap;html=1;shadow=0;comic=0;labelBackgroundColor=none;strokeWidth=1;fontFamily=Verdana;fontSize=12;align=center;arcSize=50;" vertex="1" parent="pIcPM3kmBpWuhy6s9xmB-33">
          <mxGeometry x="80" y="180" width="100" height="30" as="geometry" />
        </mxCell>
        <mxCell id="pIcPM3kmBpWuhy6s9xmB-118" style="edgeStyle=orthogonalEdgeStyle;rounded=0;orthogonalLoop=1;jettySize=auto;html=1;exitX=0.5;exitY=1;exitDx=0;exitDy=0;entryX=0.5;entryY=0;entryDx=0;entryDy=0;" edge="1" parent="1c1d494c118603dd-1" source="pIcPM3kmBpWuhy6s9xmB-102" target="pIcPM3kmBpWuhy6s9xmB-117">
          <mxGeometry relative="1" as="geometry">
            <Array as="points">
              <mxPoint x="487" y="660" />
              <mxPoint x="140" y="660" />
            </Array>
          </mxGeometry>
        </mxCell>
        <mxCell id="pIcPM3kmBpWuhy6s9xmB-123" style="edgeStyle=orthogonalEdgeStyle;rounded=0;orthogonalLoop=1;jettySize=auto;html=1;exitX=0.5;exitY=1;exitDx=0;exitDy=0;entryX=0.25;entryY=0;entryDx=0;entryDy=0;" edge="1" parent="1c1d494c118603dd-1" source="pIcPM3kmBpWuhy6s9xmB-117" target="pIcPM3kmBpWuhy6s9xmB-119">
          <mxGeometry relative="1" as="geometry" />
        </mxCell>
        <mxCell id="pIcPM3kmBpWuhy6s9xmB-131" style="edgeStyle=orthogonalEdgeStyle;rounded=0;orthogonalLoop=1;jettySize=auto;html=1;exitX=0;exitY=0.5;exitDx=0;exitDy=0;entryX=1;entryY=0.5;entryDx=0;entryDy=0;" edge="1" parent="1c1d494c118603dd-1" source="pIcPM3kmBpWuhy6s9xmB-102" target="pIcPM3kmBpWuhy6s9xmB-125">
          <mxGeometry relative="1" as="geometry" />
        </mxCell>
        <mxCell id="pIcPM3kmBpWuhy6s9xmB-132" style="edgeStyle=orthogonalEdgeStyle;rounded=0;orthogonalLoop=1;jettySize=auto;html=1;exitX=0.5;exitY=1;exitDx=0;exitDy=0;entryX=0.5;entryY=0;entryDx=0;entryDy=0;" edge="1" parent="1c1d494c118603dd-1" source="pIcPM3kmBpWuhy6s9xmB-125" target="pIcPM3kmBpWuhy6s9xmB-119">
          <mxGeometry relative="1" as="geometry" />
        </mxCell>
        <mxCell id="1c1d494c118603dd-4" value="interner Projektleiter" style="swimlane;html=1;startSize=20;" parent="1c1d494c118603dd-1" vertex="1">
          <mxGeometry x="1013.5" y="20" width="450" height="2170" as="geometry" />
        </mxCell>
        <mxCell id="pIcPM3kmBpWuhy6s9xmB-80" style="edgeStyle=orthogonalEdgeStyle;rounded=0;orthogonalLoop=1;jettySize=auto;html=1;exitX=0.5;exitY=0;exitDx=0;exitDy=0;exitPerimeter=0;entryX=0.5;entryY=0;entryDx=0;entryDy=0;" edge="1" parent="1c1d494c118603dd-4" source="pIcPM3kmBpWuhy6s9xmB-72" target="pIcPM3kmBpWuhy6s9xmB-79">
          <mxGeometry relative="1" as="geometry" />
        </mxCell>
        <mxCell id="pIcPM3kmBpWuhy6s9xmB-72" value="Nachricht von PMO" style="shape=mxgraph.sysml.accEvent;flipH=1;whiteSpace=wrap;align=center;html=1;direction=west;" vertex="1" parent="1c1d494c118603dd-4">
          <mxGeometry x="120" y="50" width="140" height="40" as="geometry" />
        </mxCell>
        <mxCell id="pIcPM3kmBpWuhy6s9xmB-79" value="bewerten" style="rounded=1;whiteSpace=wrap;html=1;shadow=0;comic=0;labelBackgroundColor=none;strokeWidth=1;fontFamily=Verdana;fontSize=12;align=center;arcSize=50;" vertex="1" parent="1c1d494c118603dd-4">
          <mxGeometry x="200" y="180" width="100" height="30" as="geometry" />
        </mxCell>
        <mxCell id="pIcPM3kmBpWuhy6s9xmB-87" value="" style="whiteSpace=wrap;html=1;rounded=0;shadow=0;comic=0;labelBackgroundColor=none;strokeWidth=1;fillColor=#000000;fontFamily=Verdana;fontSize=12;align=center;rotation=0;" vertex="1" parent="1c1d494c118603dd-4">
          <mxGeometry x="-13.5" y="300" width="423.5" height="10" as="geometry" />
        </mxCell>
        <mxCell id="pIcPM3kmBpWuhy6s9xmB-88" style="edgeStyle=orthogonalEdgeStyle;rounded=0;orthogonalLoop=1;jettySize=auto;html=1;exitX=0.5;exitY=1;exitDx=0;exitDy=0;entryX=0.092;entryY=-0.162;entryDx=0;entryDy=0;entryPerimeter=0;" edge="1" parent="1c1d494c118603dd-4" source="pIcPM3kmBpWuhy6s9xmB-79" target="pIcPM3kmBpWuhy6s9xmB-87">
          <mxGeometry relative="1" as="geometry" />
        </mxCell>
        <mxCell id="pIcPM3kmBpWuhy6s9xmB-138" style="edgeStyle=orthogonalEdgeStyle;rounded=0;orthogonalLoop=1;jettySize=auto;html=1;exitX=0.5;exitY=0;exitDx=0;exitDy=0;exitPerimeter=0;entryX=0.5;entryY=0;entryDx=0;entryDy=0;" edge="1" parent="1c1d494c118603dd-4" source="pIcPM3kmBpWuhy6s9xmB-136" target="pIcPM3kmBpWuhy6s9xmB-137">
          <mxGeometry relative="1" as="geometry" />
        </mxCell>
        <mxCell id="pIcPM3kmBpWuhy6s9xmB-136" value="Letter of Acceptance erhalten" style="shape=mxgraph.sysml.accEvent;flipH=1;whiteSpace=wrap;align=center;html=1;direction=west;" vertex="1" parent="1c1d494c118603dd-4">
          <mxGeometry x="117.5" y="1000" width="140" height="40" as="geometry" />
        </mxCell>
        <mxCell id="pIcPM3kmBpWuhy6s9xmB-137" value="unterschreiben" style="rounded=1;whiteSpace=wrap;html=1;shadow=0;comic=0;labelBackgroundColor=none;strokeWidth=1;fontFamily=Verdana;fontSize=12;align=center;arcSize=50;" vertex="1" parent="1c1d494c118603dd-4">
          <mxGeometry x="120" y="1100" width="135" height="30" as="geometry" />
        </mxCell>
        <mxCell id="pIcPM3kmBpWuhy6s9xmB-74" value="IT-Leiterin" style="swimlane;html=1;startSize=20;" vertex="1" parent="1c1d494c118603dd-1">
          <mxGeometry x="1463.5" y="20" width="250" height="2170" as="geometry" />
        </mxCell>
        <mxCell id="pIcPM3kmBpWuhy6s9xmB-84" style="edgeStyle=orthogonalEdgeStyle;rounded=0;orthogonalLoop=1;jettySize=auto;html=1;exitX=0.5;exitY=0;exitDx=0;exitDy=0;exitPerimeter=0;entryX=0.5;entryY=0;entryDx=0;entryDy=0;" edge="1" parent="pIcPM3kmBpWuhy6s9xmB-74" source="pIcPM3kmBpWuhy6s9xmB-85" target="pIcPM3kmBpWuhy6s9xmB-86">
          <mxGeometry relative="1" as="geometry" />
        </mxCell>
        <mxCell id="pIcPM3kmBpWuhy6s9xmB-85" value="Nachricht von PMO" style="shape=mxgraph.sysml.accEvent;flipH=1;whiteSpace=wrap;align=center;html=1;direction=west;" vertex="1" parent="pIcPM3kmBpWuhy6s9xmB-74">
          <mxGeometry x="70" y="50" width="140" height="40" as="geometry" />
        </mxCell>
        <mxCell id="pIcPM3kmBpWuhy6s9xmB-86" value="bewerten" style="rounded=1;whiteSpace=wrap;html=1;shadow=0;comic=0;labelBackgroundColor=none;strokeWidth=1;fontFamily=Verdana;fontSize=12;align=center;arcSize=50;" vertex="1" parent="pIcPM3kmBpWuhy6s9xmB-74">
          <mxGeometry x="90" y="180" width="100" height="30" as="geometry" />
        </mxCell>
        <mxCell id="pIcPM3kmBpWuhy6s9xmB-143" style="edgeStyle=orthogonalEdgeStyle;rounded=0;orthogonalLoop=1;jettySize=auto;html=1;exitX=0.5;exitY=0;exitDx=0;exitDy=0;exitPerimeter=0;entryX=0.5;entryY=0;entryDx=0;entryDy=0;" edge="1" parent="pIcPM3kmBpWuhy6s9xmB-74" source="pIcPM3kmBpWuhy6s9xmB-144" target="pIcPM3kmBpWuhy6s9xmB-145">
          <mxGeometry relative="1" as="geometry" />
        </mxCell>
        <mxCell id="pIcPM3kmBpWuhy6s9xmB-144" value="Letter of Acceptance erhalten" style="shape=mxgraph.sysml.accEvent;flipH=1;whiteSpace=wrap;align=center;html=1;direction=west;" vertex="1" parent="pIcPM3kmBpWuhy6s9xmB-74">
          <mxGeometry x="55" y="1000" width="140" height="40" as="geometry" />
        </mxCell>
        <mxCell id="pIcPM3kmBpWuhy6s9xmB-145" value="unterschreiben" style="rounded=1;whiteSpace=wrap;html=1;shadow=0;comic=0;labelBackgroundColor=none;strokeWidth=1;fontFamily=Verdana;fontSize=12;align=center;arcSize=50;" vertex="1" parent="pIcPM3kmBpWuhy6s9xmB-74">
          <mxGeometry x="57.5" y="1100" width="135" height="30" as="geometry" />
        </mxCell>
        <mxCell id="pIcPM3kmBpWuhy6s9xmB-89" style="edgeStyle=orthogonalEdgeStyle;rounded=0;orthogonalLoop=1;jettySize=auto;html=1;exitX=0.5;exitY=1;exitDx=0;exitDy=0;entryX=0.5;entryY=0;entryDx=0;entryDy=0;" edge="1" parent="1c1d494c118603dd-1" source="pIcPM3kmBpWuhy6s9xmB-83" target="pIcPM3kmBpWuhy6s9xmB-87">
          <mxGeometry relative="1" as="geometry" />
        </mxCell>
        <mxCell id="pIcPM3kmBpWuhy6s9xmB-90" style="edgeStyle=orthogonalEdgeStyle;rounded=0;orthogonalLoop=1;jettySize=auto;html=1;exitX=0.5;exitY=1;exitDx=0;exitDy=0;entryX=0.75;entryY=0;entryDx=0;entryDy=0;" edge="1" parent="1c1d494c118603dd-1" source="pIcPM3kmBpWuhy6s9xmB-86" target="pIcPM3kmBpWuhy6s9xmB-87">
          <mxGeometry relative="1" as="geometry">
            <mxPoint x="1460" y="320.0000000000001" as="targetPoint" />
          </mxGeometry>
        </mxCell>
        <mxCell id="pIcPM3kmBpWuhy6s9xmB-150" style="edgeStyle=orthogonalEdgeStyle;rounded=0;orthogonalLoop=1;jettySize=auto;html=1;exitX=0.5;exitY=1;exitDx=0;exitDy=0;entryX=0.25;entryY=0;entryDx=0;entryDy=0;" edge="1" parent="1c1d494c118603dd-1" source="pIcPM3kmBpWuhy6s9xmB-148" target="pIcPM3kmBpWuhy6s9xmB-149">
          <mxGeometry relative="1" as="geometry" />
        </mxCell>
        <mxCell id="pIcPM3kmBpWuhy6s9xmB-151" style="edgeStyle=orthogonalEdgeStyle;rounded=0;orthogonalLoop=1;jettySize=auto;html=1;exitX=0.5;exitY=1;exitDx=0;exitDy=0;entryX=0.5;entryY=0;entryDx=0;entryDy=0;" edge="1" parent="1c1d494c118603dd-1" source="pIcPM3kmBpWuhy6s9xmB-137" target="pIcPM3kmBpWuhy6s9xmB-149">
          <mxGeometry relative="1" as="geometry" />
        </mxCell>
        <mxCell id="pIcPM3kmBpWuhy6s9xmB-152" style="edgeStyle=orthogonalEdgeStyle;rounded=0;orthogonalLoop=1;jettySize=auto;html=1;exitX=0.5;exitY=1;exitDx=0;exitDy=0;entryX=0.75;entryY=0;entryDx=0;entryDy=0;" edge="1" parent="1c1d494c118603dd-1" source="pIcPM3kmBpWuhy6s9xmB-145" target="pIcPM3kmBpWuhy6s9xmB-149">
          <mxGeometry relative="1" as="geometry" />
        </mxCell>
        <mxCell id="pIcPM3kmBpWuhy6s9xmB-139" value="Software Architekt" style="swimlane;html=1;startSize=20;" vertex="1" parent="1c1d494c118603dd-1">
          <mxGeometry x="1713.5" y="20" width="250" height="2170" as="geometry" />
        </mxCell>
        <mxCell id="pIcPM3kmBpWuhy6s9xmB-163" style="edgeStyle=orthogonalEdgeStyle;rounded=0;orthogonalLoop=1;jettySize=auto;html=1;exitX=0.5;exitY=1;exitDx=0;exitDy=0;entryX=0.5;entryY=0;entryDx=0;entryDy=0;" edge="1" parent="pIcPM3kmBpWuhy6s9xmB-139" source="pIcPM3kmBpWuhy6s9xmB-159" target="pIcPM3kmBpWuhy6s9xmB-162">
          <mxGeometry relative="1" as="geometry" />
        </mxCell>
        <mxCell id="pIcPM3kmBpWuhy6s9xmB-159" value="leite Systementwurf ein" style="rounded=1;whiteSpace=wrap;html=1;shadow=0;comic=0;labelBackgroundColor=none;strokeWidth=1;fontFamily=Verdana;fontSize=12;align=center;arcSize=50;" vertex="1" parent="pIcPM3kmBpWuhy6s9xmB-139">
          <mxGeometry x="46.5" y="1595" width="135" height="30" as="geometry" />
        </mxCell>
        <mxCell id="pIcPM3kmBpWuhy6s9xmB-162" value="" style="ellipse;html=1;shape=endState;fillColor=#000000;strokeColor=#ff0000;" vertex="1" parent="pIcPM3kmBpWuhy6s9xmB-139">
          <mxGeometry x="99" y="1680" width="30" height="30" as="geometry" />
        </mxCell>
        <mxCell id="pIcPM3kmBpWuhy6s9xmB-156" style="edgeStyle=orthogonalEdgeStyle;rounded=0;orthogonalLoop=1;jettySize=auto;html=1;exitX=1;exitY=0.5;exitDx=0;exitDy=0;entryX=0.5;entryY=0;entryDx=0;entryDy=0;" edge="1" parent="1c1d494c118603dd-1" source="pIcPM3kmBpWuhy6s9xmB-153" target="pIcPM3kmBpWuhy6s9xmB-159">
          <mxGeometry relative="1" as="geometry">
            <mxPoint x="1810" y="1475" as="targetPoint" />
          </mxGeometry>
        </mxCell>
      </root>
    </mxGraphModel>
  </diagram>
</mxfile>
